<?xml version="1.0" encoding="utf-8"?>
<!-- Generator: Adobe Illustrator 16.0.3, SVG Export Plug-In . SVG Version: 6.00 Build 0)  -->
<!DOCTYPE svg PUBLIC "-//W3C//DTD SVG 1.1//EN" "http://www.w3.org/Graphics/SVG/1.1/DTD/svg11.dtd">
<svg version="1.1" id="Layer_1" xmlns="http://www.w3.org/2000/svg" xmlns:xlink="http://www.w3.org/1999/xlink" x="0px" y="0px"
	 width="104.769px" height="149.625px" viewBox="0 0 104.769 149.625" enable-background="new 0 0 104.769 149.625"
	 xml:space="preserve">
<g>
	<path fill="#FF6600" d="M4.545,37.491v73c0,2.762,2.239,5,5,5s5-2.238,5-5V79.49h18v31.001c0,2.762,2.239,5,5,5s5-2.238,5-5V79.49
		h20v31.001c0,2.762,2.238,5,5,5s5-2.238,5-5V79.49h18v31.001c0,2.762,2.238,5,5,5s5-2.238,5-5v-36c0-2.761-2.238-5.001-5-5.001h-23
		V37.491c0-2.761-2.238-5-5-5s-5,2.239-5,5V69.49h-20V37.491c0-2.761-2.239-5-5-5s-5,2.239-5,5V69.49h-18V37.491
		c0-2.761-2.239-5-5-5S4.545,34.729,4.545,37.491z"/>
	<path fill="#FF6600" d="M4.797,14.063c0.585,0,1.409-0.313,2.237-0.938l0.511-0.363v10.807c0,0.484-0.103,0.853-0.073,1.105
		c0.03,0.252,0.067,0.53,0.229,0.833c0.303,0.525,1.05,0.787,2.302,0.787c1.291,0,2.063-0.272,2.347-0.817
		c0.161-0.303,0.188-0.57,0.218-0.802c0.03-0.232-0.023-0.58-0.023-1.044V6.767c0-0.727,0.011-1.261-0.09-1.604
		c-0.102-0.303-0.211-0.519-0.393-0.651c-0.182-0.131-0.429-0.247-0.772-0.348c-0.344-0.101-0.815-0.151-1.431-0.151
		S8.678,4.275,8.153,4.799L8.064,4.86L3.101,9.34c-0.727,0.646-1.089,1.241-1.089,1.786s0.318,1.17,0.954,1.877
		S4.211,14.063,4.797,14.063z"/>
	<path fill="#FF6600" d="M29.165,21.57c0.061,0.202,0.171,0.465,0.333,0.787c0.464,0.888,0.999,1.604,1.604,2.149
		c1.614,1.413,3.633,2.119,6.055,2.119c2.441,0,4.47-0.701,6.085-2.104c1.614-1.402,2.421-3.183,2.421-5.343
		c0-1.09-0.332-2.058-0.998-2.906c-0.242-0.323-0.697-0.651-1.091-0.984s-1.029-0.55-1.029-0.651v-0.212
		c2-0.787,2.498-2.063,2.498-3.83c0-1.766-0.648-3.355-2.081-4.768c-1.434-1.412-3.356-2.119-5.839-2.119
		c-1.05,0-1.987,0.142-2.844,0.424c-0.857,0.283-1.515,0.596-1.99,0.938c-0.474,0.344-0.888,0.742-1.251,1.196
		s-0.583,0.772-0.664,0.954c-0.465,1.05-0.695,1.736-0.695,2.059c0,0.767,0.504,1.443,1.514,2.028
		c0.605,0.363,1.16,0.545,1.665,0.545c0.867,0,1.534-0.504,1.999-1.514l0.182-0.363c0.101-0.242,0.363-0.484,0.787-0.727
		s0.993-0.363,1.71-0.363s1.276,0.192,1.681,0.575c0.403,0.384,0.605,0.787,0.605,1.211c0,0.787-0.768,1.181-2.301,1.181
		c-0.707,0-1.231,0.05-1.574,0.151c-0.747,0.262-1.12,1.1-1.12,2.513c0,1.292,0.272,2.069,0.817,2.331
		c0.282,0.162,0.545,0.262,0.787,0.303s0.701,0.061,1.377,0.061s1.262,0.207,1.756,0.62c0.494,0.414,0.742,0.893,0.742,1.438
		s-0.253,1.035-0.757,1.468c-0.505,0.435-1.292,0.651-2.361,0.651c-0.465,0-0.889-0.061-1.271-0.182
		c-0.908-0.322-1.464-0.807-1.665-1.453c-0.263-0.787-0.565-1.312-0.908-1.574c-0.263-0.201-0.798-0.303-1.604-0.303
		c-1.979,0-2.967,0.586-2.967,1.756c0,0.424,0.11,0.969,0.333,1.635L29.165,21.57z"/>
	<path fill="#FF6600" d="M66.445,21.268c-0.898,0-1.528-0.212-1.892-0.636c-0.787-0.646-1.464-0.969-2.028-0.969
		c-0.565,0-1.15,0.333-1.756,0.999c-0.747,0.768-1.12,1.423-1.12,1.968s0.383,1.15,1.15,1.816l0.242,0.212
		c0.161,0.162,0.413,0.354,0.757,0.575c1.514,0.949,3.209,1.423,5.086,1.423c2.159,0,3.966-0.751,5.419-2.255
		c1.453-1.503,2.18-3.3,2.18-5.389c0-2.088-0.768-3.854-2.301-5.297c-1.534-1.443-3.26-2.165-5.177-2.165
		c-0.484,0-0.838,0.11-1.06,0.15c0.161-1.292,0.262-2.211,0.303-2.211h5.298c0.443,0,0.771-0.105,0.983-0.135
		s0.459-0.17,0.742-0.333C73.776,8.76,74.029,8,74.029,6.79c0-1.332-0.272-2.15-0.817-2.433c-0.303-0.161-0.565-0.024-0.787-0.054
		c-0.223-0.03-0.575,0.188-1.06,0.188H68.52l-4.602-0.269c-0.465,0-0.873-0.023-1.227,0.168c-0.353,0.192-0.615,0.349-0.787,0.591
		c-0.171,0.242-0.317,0.485-0.438,0.788s-0.192,0.5-0.212,0.621c-0.021,0.121-0.232,1.667-0.636,4.654
		c-0.404,2.987-0.605,4.608-0.605,4.871s0.11,0.508,0.333,0.74c0.222,0.232,0.691,0.539,1.407,0.922
		c0.717,0.384,1.353,0.575,1.907,0.575c0.556,0,1.105-0.231,1.65-0.696c0.363-0.363,0.848-0.545,1.453-0.545s1.145,0.197,1.619,0.59
		c0.475,0.393,0.712,0.928,0.712,1.604c0,0.677-0.218,1.207-0.651,1.589C68.01,21.076,67.344,21.268,66.445,21.268z"/>
	<path fill="#FF6600" d="M17.089,137.609c-0.354-0.191-0.943-0.119-1.771-0.119H9.545v-0.487l0.874-0.303
		c1.17-0.463,2.56-1.361,4.054-2.693c0.706-0.625,1.341-1.453,1.846-2.482c0.504-1.029,0.771-2.119,0.771-3.27
		c0-2.159-0.75-4.082-2.263-5.768c-1.514-1.684-3.484-2.527-5.916-2.527s-4.397,0.832-5.901,2.498
		c-1.503,1.664-2.254,3.547-2.254,5.646c0,0.706,0.05,1.222,0.152,1.544c0.262,0.768,1.1,1.15,2.513,1.15
		c1.271,0,2.059-0.242,2.361-0.727c0.161-0.283,0.472-0.535,0.502-0.757s0.261-0.556,0.261-0.999v-0.182l-0.094-0.696
		c0.061-0.464,0.22-0.933,0.694-1.407s0.98-0.712,1.627-0.712c0.646,0,1.124,0.091,1.487,0.272s0.617,0.379,0.789,0.59
		c0.172,0.213,0.321,0.484,0.463,0.818c0.141,0.332,0.208,0.59,0.208,0.771c0,0.908-0.381,1.766-1.138,2.573s-1.67,1.528-2.74,2.165
		c-1.07,0.635-2.14,1.281-3.209,1.937c-1.07,0.656-1.984,1.443-2.741,2.361c-0.757,0.919-1.135,1.923-1.135,3.013
		c0,0.727,0.262,1.335,0.787,1.88c0.524,0.545,1.15,0.791,1.877,0.791h11.837c0.807,0,1.433-0.094,1.877-0.336
		c0.303-0.143,0.519-0.392,0.65-0.774c0.131-0.383,0.196-0.887,0.196-1.522s-0.061-1.063-0.182-1.456S17.441,137.802,17.089,137.609
		z"/>
	<path fill="#FF6600" d="M44.635,121.094c-0.162-0.291-0.435-0.504-0.817-0.635c-0.384-0.131-0.894-0.197-1.529-0.197
		s-1.15,0.057-1.544,0.166c-0.394,0.111-0.671,0.309-0.832,0.591c-0.162,0.283-0.275,0.535-0.305,0.757
		c-0.03,0.223-0.062,0.565-0.062,1.029v8.685h-4.9l1.847-7.598c0-0.02,0.01-0.153,0.03-0.194c0.141-0.524,0.212-1.001,0.212-1.324
		c0-0.908-0.707-1.58-2.119-1.964c-0.505-0.141-0.969-0.226-1.393-0.226s-0.772,0.105-1.045,0.327
		c-0.272,0.223-0.454,0.45-0.545,0.692s-0.196,0.595-0.317,1.059l-2.513,10.141c-0.061,0.263-0.091,0.665-0.091,1.21
		c0,0.544,0.05,1.191,0.151,1.514c0.262,0.768,1.1,1.363,2.513,1.363h8.17v3.269c0,0.706,0.078,1.23,0.199,1.574
		c0.08,0.262,0.22,0.464,0.402,0.605c0.182,0.141,0.448,0.262,0.792,0.363c0.343,0.101,0.809,0.15,1.395,0.15
		c0.585,0,1.075-0.061,1.469-0.182s0.475-0.367,0.667-0.741c0.191-0.373,0.077-0.954,0.077-1.741v-16.831
		c0-0.464,0.196-0.817,0.166-1.06S44.796,121.387,44.635,121.094z"/>
	<path fill="#FF6600" d="M67.672,129.253c-0.747,0-1.494,0.171-2.24,0.515l0.151-0.424c0.201-0.666,0.746-1.412,1.635-2.24
		c0.443-0.403,1.054-0.746,1.831-1.029c0.777-0.282,1.579-0.424,2.407-0.424c0.827,0,1.412-0.061,1.756-0.182
		c0.262-0.08,0.464-0.212,0.605-0.394c0.141-0.182,0.262-0.444,0.363-0.787c0.101-0.343,0.151-0.808,0.151-1.393
		s-0.061-1.069-0.182-1.453c-0.121-0.383-0.359-0.671-0.712-0.862c-0.354-0.191-0.913-0.288-1.68-0.288
		c-3.795,0-6.787,1.292-8.977,3.875s-3.284,5.802-3.284,9.657c0,2.664,0.666,4.839,1.998,6.523c1.332,1.686,3.31,2.527,5.934,2.527
		c2.078,0,3.849-0.686,5.313-2.059c1.463-1.371,2.195-3.076,2.195-5.115c0-1.654-0.712-3.144-2.135-4.465
		C71.38,129.915,69.67,129.253,67.672,129.253z M67.309,137.911c-1.01,0-1.655-0.23-1.938-0.695
		c-0.142-0.242-0.237-0.465-0.288-0.666s-0.075-0.494-0.075-0.879c0-0.383,0.206-0.761,0.62-1.135
		c0.414-0.373,1.009-0.561,1.786-0.561s1.342,0.203,1.695,0.605c0.354,0.404,0.53,0.838,0.53,1.303
		C69.64,137.235,68.862,137.911,67.309,137.911z"/>
	<path fill="#FF6600" d="M103.86,138.729c-0.928-2.1-1.614-3.684-2.058-4.754c1.513-1.473,2.27-3.35,2.27-5.63
		c0-1.312-0.262-2.503-0.787-3.572c-0.524-1.069-1.19-1.818-1.997-2.445c-1.676-1.291-3.401-1.838-5.177-1.838h-6.539
		c-1.292,0-2.079,0.174-2.361,0.719c-0.162,0.303-0.424,0.521-0.455,0.754c-0.029,0.232-0.211,0.53-0.211,0.994v16.802
		c0,0.706,0.227,1.23,0.348,1.574c0.242,0.746,1.153,1.119,2.566,1.119c1.291,0,2.119-0.271,2.402-0.816
		c0.161-0.303,0.433-0.57,0.463-0.803s0.221-0.58,0.221-1.045v-3.298h3.506l0.938-0.121c1.372,3.27,2.159,5.065,2.361,5.448
		c0.121,0.203,0.307,0.384,0.56,0.575c0.252,0.191,0.575,0.28,0.969,0.28s0.913-0.146,1.56-0.428
		c1.251-0.525,1.876-1.173,1.876-1.939C104.314,139.982,104.163,139.456,103.86,138.729z M97.867,130.583
		c-0.586,0.443-1.171,0.906-1.756,0.906h-3.566v-6h3.506c0.625,0,1.23,0.307,1.816,0.762c0.585,0.453,0.878,1.285,0.878,2.174
		C98.745,129.312,98.452,130.138,97.867,130.583z"/>
</g>
</svg>
