<?xml version="1.0" encoding="utf-8"?>
<!-- Generator: Adobe Illustrator 16.0.3, SVG Export Plug-In . SVG Version: 6.00 Build 0)  -->
<!DOCTYPE svg PUBLIC "-//W3C//DTD SVG 1.1//EN" "http://www.w3.org/Graphics/SVG/1.1/DTD/svg11.dtd">
<svg version="1.1"
	 id="svg3214" xmlns:dc="http://purl.org/dc/elements/1.1/" xmlns:cc="http://creativecommons.org/ns#" xmlns:rdf="http://www.w3.org/1999/02/22-rdf-syntax-ns#" xmlns:svg="http://www.w3.org/2000/svg" xmlns:sodipodi="http://sodipodi.sourceforge.net/DTD/sodipodi-0.dtd" xmlns:inkscape="http://www.inkscape.org/namespaces/inkscape"
	 xmlns="http://www.w3.org/2000/svg" xmlns:xlink="http://www.w3.org/1999/xlink" x="0px" y="0px" width="354.535px"
	 height="148.988px" viewBox="-113.163 -57.515 354.535 148.988" enable-background="new -113.163 -57.515 354.535 148.988"
	 xml:space="preserve">
<g id="layer1" transform="translate(-138.76814,-233.95975)" inkscape:groupmode="layer" inkscape:label="Calque 1">
	<g id="g2237" transform="translate(114.21314,116.87075)">
		<path id="path2239" inkscape:connector-curvature="0" fill="#FFFFFF" stroke="#000000" stroke-width="6" d="M262.921,187.565
			c0,9.938-8.053,17.998-18,17.998H-67.608c-9.945,0-18-8.061-18-17.998V80.574c0-9.947,8.055-18,18-18h312.535
			c9.943,0,18,8.053,18,18v106.99H262.921z"/>
		<g id="g2241">
			
				<circle id="circle2243" sodipodi:ry="2.2409999" sodipodi:rx="2.2409999" sodipodi:cy="141.351" sodipodi:cx="66.588997" cx="22.493" cy="117.361" r="6.723">
			</circle>
			
				<circle id="circle2245" sodipodi:ry="2.2409999" sodipodi:rx="2.2409999" sodipodi:cy="141.351" sodipodi:cx="77.617996" cx="55.579" cy="117.361" r="6.723">
			</circle>
			
				<circle id="circle2247" sodipodi:ry="2.2379999" sodipodi:rx="2.2379999" sodipodi:cy="141.351" sodipodi:cx="88.643997" cx="88.658" cy="117.36" r="6.714">
			</circle>
			<path id="path2249" inkscape:connector-curvature="0" d="M121.728,110.639c3.715,0,6.727,3.012,6.727,6.723
				s-3.012,6.721-6.727,6.721c-3.697,0-6.709-3.01-6.709-6.721S118.031,110.639,121.728,110.639z"/>
			
				<circle id="circle2251" sodipodi:ry="2.2409999" sodipodi:rx="2.2409999" sodipodi:cy="141.351" sodipodi:cx="110.697" cx="154.816" cy="117.361" r="6.723">
			</circle>
			
				<circle id="circle2253" sodipodi:ry="2.2390001" sodipodi:rx="2.2390001" sodipodi:cy="152.491" sodipodi:cx="72.102997" cx="39.034" cy="150.782" r="6.718">
			</circle>
			
				<circle id="circle2255" sodipodi:ry="2.2390001" sodipodi:rx="2.2390001" sodipodi:cy="152.491" sodipodi:cx="83.130997" cx="72.118" cy="150.782" r="6.718">
			</circle>
			<path id="path2257" inkscape:connector-curvature="0" d="M105.193,144.065c3.711,0,6.715,3.01,6.715,6.707
				c0,3.715-3.004,6.729-6.715,6.729c-3.715,0-6.727-3.014-6.727-6.729C98.466,147.074,101.478,144.065,105.193,144.065z"/>
			
				<circle id="circle2259" sodipodi:ry="2.2390001" sodipodi:rx="2.2390001" sodipodi:cy="152.491" sodipodi:cx="105.185" cx="138.281" cy="150.782" r="6.718">
			</circle>
		</g>
		<path id="path2261" inkscape:connector-curvature="0" fill="none" stroke="#000000" stroke-width="3" d="M13.658,83.973
			c-16.826,0-28.199,13.555-25.273,30.127l7.061,39.928c2.928,16.574,19.098,30.15,35.926,30.15h114.574
			c16.818,0,32.988-13.57,35.924-30.15l7.061-39.928c2.924-16.572-8.438-30.127-25.275-30.127H13.658L13.658,83.973z"/>
		<g id="g2263">
			
				<circle id="circle2265" sodipodi:ry="5.0539999" sodipodi:rx="5.0539999" sodipodi:cy="146.922" sodipodi:cx="41.759998" fill="none" stroke="#000000" stroke-width="3" cx="-51.995" cy="134.074" r="15.162">
			</circle>
			
				<circle id="circle2267" sodipodi:ry="5.0539999" sodipodi:rx="5.0539999" sodipodi:cy="146.922" sodipodi:cx="135.528" fill="none" stroke="#000000" stroke-width="3" cx="229.312" cy="134.074" r="15.162">
			</circle>
		</g>
	</g>
	<text transform="matrix(1 0 0 1 113.942 228.4392)" font-family="'ArialNarrow'" font-size="24">1</text>
	<text transform="matrix(1 0 0 1 281.0816 227.5173)" font-family="'ArialNarrow'" font-size="24">5</text>
	<text transform="matrix(1 0 0 1 127.0523 283.074)" font-family="'ArialNarrow'" font-size="24">6</text>
	<text transform="matrix(1 0 0 1 267.3638 283.074)" font-family="'ArialNarrow'" font-size="24">9</text>
</g>
</svg>
