<?xml version="1.0" encoding="utf-8"?>
<!-- Generator: Adobe Illustrator 16.0.3, SVG Export Plug-In . SVG Version: 6.00 Build 0)  -->
<!DOCTYPE svg PUBLIC "-//W3C//DTD SVG 1.1//EN" "http://www.w3.org/Graphics/SVG/1.1/DTD/svg11.dtd">
<svg version="1.1"
	 id="svg3214" xmlns:dc="http://purl.org/dc/elements/1.1/" xmlns:cc="http://creativecommons.org/ns#" xmlns:rdf="http://www.w3.org/1999/02/22-rdf-syntax-ns#" xmlns:svg="http://www.w3.org/2000/svg" xmlns:sodipodi="http://sodipodi.sourceforge.net/DTD/sodipodi-0.dtd" xmlns:inkscape="http://www.inkscape.org/namespaces/inkscape"
	 xmlns="http://www.w3.org/2000/svg" xmlns:xlink="http://www.w3.org/1999/xlink" x="0px" y="0px" width="354.537px"
	 height="148.984px" viewBox="-113.185 -57.522 354.537 148.984" enable-background="new -113.185 -57.522 354.537 148.984"
	 xml:space="preserve">
<g id="layer1" transform="translate(-138.76814,-233.95975)" inkscape:groupmode="layer" inkscape:label="Calque 1">
	<g id="g2237" transform="translate(114.21314,116.87075)">
		<path id="path2239" inkscape:connector-curvature="0" fill="#FFFFFF" stroke="#000000" stroke-width="6" d="M262.9,187.557
			c0,9.938-8.053,17.994-18,17.994H-67.63c-9.945,0-18-8.059-18-17.994V80.567c0-9.949,8.055-18,18-18h312.537
			c9.939,0,18,8.051,18,18v106.99H262.9z"/>
		<path id="path2261" inkscape:connector-curvature="0" d="M13.638,83.965c-16.828,0-28.201,13.555-25.275,30.125l7.063,39.928
			c2.93,16.576,19.096,30.152,35.926,30.152h114.576c16.82,0,32.984-13.57,35.924-30.152l7.061-39.928
			c2.924-16.57-8.438-30.125-25.273-30.125H13.638L13.638,83.965z"/>
		<g id="g2241">
			
				<circle id="circle2243" sodipodi:ry="2.2409999" sodipodi:rx="2.2409999" sodipodi:cy="141.351" sodipodi:cx="66.588997" fill="#FFFFFF" cx="22.472" cy="117.352" r="6.723">
			</circle>
			
				<circle id="circle2245" sodipodi:ry="2.2409999" sodipodi:rx="2.2409999" sodipodi:cy="141.351" sodipodi:cx="77.617996" fill="#FFFFFF" cx="55.56" cy="117.352" r="6.723">
			</circle>
			
				<circle id="circle2247" sodipodi:ry="2.2379999" sodipodi:rx="2.2379999" sodipodi:cy="141.351" sodipodi:cx="88.643997" fill="#FFFFFF" cx="88.638" cy="117.352" r="6.715">
			</circle>
			<path id="path2249" inkscape:connector-curvature="0" fill="#FFFFFF" d="M121.704,110.63c3.715,0,6.727,3.012,6.727,6.723
				s-3.012,6.721-6.727,6.721c-3.695,0-6.707-3.01-6.707-6.721S118.009,110.63,121.704,110.63z"/>
			
				<path id="circle2251" sodipodi:ry="2.2409999" sodipodi:rx="2.2409999" sodipodi:cy="141.351" sodipodi:cx="110.697" fill="#FFFFFF" d="
				M154.794,110.63c3.713,0,6.725,3.01,6.725,6.723s-3.012,6.723-6.725,6.723c-3.711,0-6.723-3.01-6.723-6.723
				S151.083,110.63,154.794,110.63z"/>
			
				<circle id="circle2253" sodipodi:ry="2.2390001" sodipodi:rx="2.2390001" sodipodi:cy="152.491" sodipodi:cx="72.102997" fill="#FFFFFF" cx="39.013" cy="150.772" r="6.717">
			</circle>
			
				<circle id="circle2255" sodipodi:ry="2.2390001" sodipodi:rx="2.2390001" sodipodi:cy="152.491" sodipodi:cx="83.130997" fill="#FFFFFF" cx="72.097" cy="150.772" r="6.717">
			</circle>
			<path id="path2257" inkscape:connector-curvature="0" fill="#FFFFFF" d="M105.173,144.055c3.711,0,6.715,3.01,6.715,6.707
				c0,3.715-3.004,6.727-6.715,6.727c-3.713,0-6.725-3.012-6.725-6.727C98.449,147.065,101.454,144.055,105.173,144.055z"/>
			
				<circle id="circle2259" sodipodi:ry="2.2390001" sodipodi:rx="2.2390001" sodipodi:cy="152.491" sodipodi:cx="105.185" fill="#FFFFFF" cx="138.259" cy="150.772" r="6.717">
			</circle>
		</g>
		<g id="g2263">
			
				<circle id="circle2265" sodipodi:ry="5.0539999" sodipodi:rx="5.0539999" sodipodi:cy="146.922" sodipodi:cx="41.759998" fill="none" stroke="#000000" stroke-width="3" cx="-52.014" cy="134.065" r="15.162">
			</circle>
			
				<path id="circle2267" sodipodi:ry="5.0539999" sodipodi:rx="5.0539999" sodipodi:cy="146.922" sodipodi:cx="135.528" fill="none" stroke="#000000" stroke-width="3" d="
				M229.29,118.903c8.377,0,15.162,6.789,15.162,15.162s-6.785,15.162-15.162,15.162c-8.371,0-15.16-6.789-15.16-15.162
				S220.919,118.903,229.29,118.903z"/>
		</g>
	</g>
	<text transform="matrix(1 0 0 1 113.9224 228.428)" fill="#FFFFFF" font-family="'ArialNarrow'" font-size="24">5</text>
	<text transform="matrix(1 0 0 1 279.3492 228.135)" fill="#FFFFFF" font-family="'ArialNarrow'" font-size="24">1</text>
	<text transform="matrix(1 0 0 1 127.0289 283.0647)" fill="#FFFFFF" font-family="'ArialNarrow'" font-size="24">9</text>
	<text transform="matrix(1 0 0 1 267.6754 283.0647)" fill="#FFFFFF" font-family="'ArialNarrow'" font-size="24">6</text>
</g>
</svg>
